<svg xmlns="http://www.w3.org/2000/svg" width="26.306" height="18.744" viewBox="0 0 26.306 18.744">
  <path id="car" d="M27.936,16.46l-7.262-2.611L17.63,10.035A2.818,2.818,0,0,0,15.45,9H7.934a2.818,2.818,0,0,0-2.321,1.24L3.067,14a4.7,4.7,0,0,0-.817,2.621v7.412a.939.939,0,0,0,.939.939H5.2a3.758,3.758,0,0,0,7.253,0h5.9a3.758,3.758,0,0,0,7.253,0h2.01a.939.939,0,0,0,.939-.939V17.343a.939.939,0,0,0-.62-.883ZM8.826,25.911a1.879,1.879,0,1,1,1.879-1.879A1.879,1.879,0,0,1,8.826,25.911Zm13.153,0a1.879,1.879,0,1,1,1.879-1.879A1.879,1.879,0,0,1,21.979,25.911Zm4.7-2.818H25.606a3.758,3.758,0,0,0-7.253,0h-5.9a3.758,3.758,0,0,0-7.253,0H4.129V16.619a2.818,2.818,0,0,1,.489-1.588l2.546-3.758a.939.939,0,0,1,.78-.394H15.46a.939.939,0,0,1,.723.338l3.194,4.012a1.024,1.024,0,0,0,.413.3L26.677,18Z" transform="translate(-2.25 -9)" fill="#707070"/>
</svg>
