<svg xmlns="http://www.w3.org/2000/svg" width="14.077" height="18.935" viewBox="0 0 14.077 18.935">
  <g id="location-pin" transform="translate(-5.627 -1.238)">
    <path id="Path_13" data-name="Path 13" d="M15.944,8.971a2.59,2.59,0,1,0,2.59,2.59A2.59,2.59,0,0,0,15.944,8.971Zm0,3.885a1.3,1.3,0,1,1,1.3-1.3,1.3,1.3,0,0,1-1.3,1.3Z" transform="translate(-3.28 -3.282)" fill="#707070"/>
    <path id="Path_14" data-name="Path 14" d="M17.641,3.3A7.039,7.039,0,0,0,6.767,12.117l4.893,7.512a1.2,1.2,0,0,0,2.009,0l4.893-7.512a7.039,7.039,0,0,0-.92-8.819Zm-.165,8.112L12.664,18.8,7.852,11.41a5.743,5.743,0,1,1,9.625,0Z" transform="translate(0 0)" fill="#707070"/>
  </g>
</svg>
