<svg xmlns="http://www.w3.org/2000/svg" xmlns:xlink="http://www.w3.org/1999/xlink" width="92" height="32" viewBox="0 0 92 32">
  <defs>
    <clipPath id="clip-path">
      <rect id="Rectangle_30" data-name="Rectangle 30" width="92" height="32" rx="16" transform="translate(4848 3790)" fill="#707070" stroke="#707070" stroke-width="1"/>
    </clipPath>
  </defs>
  <g id="Mask_Group_1" data-name="Mask Group 1" transform="translate(-4848 -3790)" clip-path="url(#clip-path)">
    <g id="__TEMP__SVG__" transform="translate(4874.308 3785.077)">
      <path id="Path_25" data-name="Path 25" d="M21.833,36.923l-2.141-1.231,4.923-8.615H32a2.462,2.462,0,0,0,2.462-2.462V9.846A2.462,2.462,0,0,0,32,7.385H7.385A2.462,2.462,0,0,0,4.923,9.846V24.615a2.462,2.462,0,0,0,2.462,2.462H18.462v2.462H7.385a4.923,4.923,0,0,1-4.923-4.923V9.846A4.923,4.923,0,0,1,7.385,4.923H32a4.923,4.923,0,0,1,4.923,4.923V24.615A4.923,4.923,0,0,1,32,29.538H26.043Z" fill="#707070"/>
      <path id="Path_26" data-name="Path 26" d="M9.846,12.308H29.538v2.462H9.846Z" fill="#707070"/>
      <path id="Path_27" data-name="Path 27" d="M9.846,19.692H22.154v2.462H9.846Z" fill="#707070"/>
    </g>
  </g>
</svg>
