<svg xmlns="http://www.w3.org/2000/svg" width="16.421" height="16.415" viewBox="0 0 16.421 16.415">
  <path id="phone" d="M17.891,19.79h-.107C5.378,19.076,3.617,8.609,3.37,5.414A1.894,1.894,0,0,1,5.113,3.375H8.592a1.263,1.263,0,0,1,1.175.8l.959,2.361A1.263,1.263,0,0,1,10.447,7.9L9.1,9.253a5.915,5.915,0,0,0,4.785,4.8l1.37-1.357a1.263,1.263,0,0,1,1.37-.259l2.38.953a1.263,1.263,0,0,1,.777,1.174V17.9a1.894,1.894,0,0,1-1.894,1.894ZM5.264,4.638a.631.631,0,0,0-.631.631v.051C4.924,9.057,6.786,17.9,17.853,18.527a.631.631,0,0,0,.669-.593V14.562l-2.38-.953-1.812,1.8-.3-.038C8.535,14.682,7.79,9.189,7.79,9.132l-.038-.3L9.545,7.017,8.6,4.638Z" transform="translate(-3.364 -3.375)" fill="#707070"/>
</svg>
