<svg xmlns="http://www.w3.org/2000/svg" width="18.448" height="19.565" viewBox="0 0 18.448 19.565">
  <g id="sign-out-line" transform="translate(23.448 23.565) rotate(180)">
    <path id="Path_18" data-name="Path 18" d="M6.272,5.4H16.45v6.848h1.272V5.4A1.339,1.339,0,0,0,16.45,4H6.272A1.339,1.339,0,0,0,5,5.4v16.77a1.339,1.339,0,0,0,1.272,1.4H16.45a1.339,1.339,0,0,0,1.272-1.4H6.272Z" fill="#707070"/>
    <path id="Path_19" data-name="Path 19" d="M23.237,17.193a.636.636,0,0,0-.9.9L24.49,20.2H15.266a.636.636,0,1,0,0,1.272H24.49l-2.15,2.2a.636.636,0,1,0,.9.9l3.715-3.69Z" transform="translate(-3.504 -2.991)" fill="#707070"/>
  </g>
</svg>
