<svg xmlns="http://www.w3.org/2000/svg" width="19.326" height="19.394" viewBox="0 0 19.326 19.394">
  <path id="tools" d="M9.227,2.25A6.771,6.771,0,0,0,5.5,3.355L9.918,7.777a1.451,1.451,0,0,1,.138,2.073,1.451,1.451,0,0,1-2.073-.138L3.424,5.29A6.8,6.8,0,0,0,2.249,9.228a7.006,7.006,0,0,0,6.978,6.978,7.531,7.531,0,0,0,1.8-.207l4.629,4.629a3.468,3.468,0,0,0,4.905-4.905l-4.629-4.629a7.531,7.531,0,0,0,.207-1.8A6.909,6.909,0,0,0,9.227,2.25Zm5.527,6.978a5.258,5.258,0,0,1-.207,1.451l-.207.76.553.553,4.629,4.629a1.99,1.99,0,0,1,.622,1.451,1.879,1.879,0,0,1-.622,1.45,2,2,0,0,1-2.9,0l-4.629-4.629-.553-.553-.76.207a5.258,5.258,0,0,1-1.451.207,5.714,5.714,0,0,1-3.939-1.589A5.272,5.272,0,0,1,3.631,9.228a5.755,5.755,0,0,1,.207-1.52l3.04,3.04a2.86,2.86,0,0,0,4.077.138,2.86,2.86,0,0,0-.138-4.077L7.777,3.77a4.456,4.456,0,0,1,1.382-.207A5.714,5.714,0,0,1,13.1,5.152a5.866,5.866,0,0,1,1.658,4.077Z" transform="translate(-2.248 -2.25)" fill="#707070"/>
</svg>
