<?xml version="1.0" encoding="UTF-8"?>
<svg xmlns="http://www.w3.org/2000/svg" xmlns:xlink="http://www.w3.org/1999/xlink" width="625.3pt" height="315.7pt" viewBox="0 0 625.3 315.7" version="1.1">
<defs>
<clipPath id="clip1">
  <path d="M 0 0 L 625.300781 0 L 625.300781 315.699219 L 0 315.699219 Z M 0 0 "/>
</clipPath>
</defs>
<g id="surface1">
<g clip-path="url(#clip1)" clip-rule="nonzero">
<path style=" stroke:none;fill-rule:evenodd;fill:rgb(0%,58.396912%,56.834412%);fill-opacity:1;" d="M 0.03125 315.660156 L 625.367188 315.660156 L 625.367188 -0.0546875 L 0.03125 -0.0546875 Z M 0.03125 315.660156 "/>
</g>
<path style=" stroke:none;fill-rule:evenodd;fill:rgb(100%,100%,100%);fill-opacity:1;" d="M 197.84375 93.378906 L 227.636719 93.378906 L 227.636719 221.324219 L 197.84375 221.324219 L 197.84375 168.625 L 132.621094 168.625 L 158.640625 142.453125 L 197.84375 142.453125 Z M 94.75 93.378906 L 124.542969 93.378906 L 124.542969 221.324219 L 94.75 221.324219 Z M 413.734375 222.195313 L 413.734375 94.34375 L 443.160156 94.320313 L 443.191406 196 L 465.425781 196.050781 L 530.652344 196.050781 L 504.628906 222.222656 L 465.425781 222.222656 Z M 258.601563 221.910156 L 258.601563 93.964844 L 348.15625 93.964844 C 374.953125 94.015625 383.730469 110.722656 384.175781 125.542969 C 384.539063 137.617188 380.992188 146.480469 369.566406 152.84375 C 405.441406 165.992188 390.5 220.898438 352.492188 221.910156 Z M 289.054688 199.1875 L 289.054688 117.109375 L 339.488281 117.238281 C 348.4375 117.53125 354.871094 120.984375 354.496094 130.453125 C 354.191406 138.109375 349.539063 143.125 341.265625 143.445313 L 321.632813 143.445313 L 297.101563 168.183594 L 340.855469 168.183594 C 353.179688 167.957031 359.402344 173.414063 359.300781 184.378906 C 359.199219 195.109375 350.730469 198.710938 340.855469 198.988281 Z M 289.054688 199.1875 "/>
</g>
</svg>
